<svg width="48" height="48" viewBox="0 0 48 48" fill="none" xmlns="http://www.w3.org/2000/svg">
<path d="M40.742 38.118C42.122 36.836 43 35.026 43 33C43 29.14 39.86 26 36 26C32.14 26 29 29.14 29 33C29 35.026 29.878 36.836 31.258 38.118C28.302 39.186 26 41.24 26 44H30C30 42.804 32.826 41.286 36 41.286C39.174 41.286 42 42.806 42 44H46C46 41.24 43.698 39.186 40.742 38.118ZM36 30C37.654 30 39 31.346 39 33C39 34.654 37.654 36 36 36C34.346 36 33 34.654 33 33C33 31.346 34.346 30 36 30ZM16.742 38.118C19.698 39.186 22 41.24 22 44H18C18 42.804 15.174 41.286 12 41.286C8.826 41.286 6 42.804 6 44H2C2 41.24 4.302 39.186 7.258 38.118C5.878 36.836 5 35.026 5 33C5 29.14 8.14 26 12 26C15.86 26 19 29.14 19 33C19 35.026 18.122 36.836 16.742 38.118ZM12 30C10.346 30 9 31.346 9 33C9 34.654 10.346 36 12 36C13.654 36 15 34.654 15 33C15 31.346 13.654 30 12 30ZM30 22C30 20.804 27.174 19.286 24 19.286C20.826 19.286 18 20.804 18 22H14C14 19.24 16.302 17.186 19.258 16.118C17.878 14.838 17 13.026 17 11C17 7.14 20.14 4 24 4C27.86 4 31 7.14 31 11C31 13.026 30.122 14.838 28.742 16.118C31.698 17.186 34 19.24 34 22H30ZM24 8C22.346 8 21 9.346 21 11C21 12.654 22.346 14 24 14C25.654 14 27 12.654 27 11C27 9.346 25.654 8 24 8Z" fill="#DFCFD2"/>
</svg>
