<svg width="20" height="22" viewBox="0 0 20 22" fill="none" xmlns="http://www.w3.org/2000/svg">
<path d="M4 4.25C4 4.11193 4.11193 4 4.25 4H11.75C11.8881 4 12 4.11193 12 4.25V5.75C12 5.88807 11.8881 6 11.75 6H4.25C4.11193 6 4 5.88807 4 5.75V4.25Z" fill="#DFCFD2"/>
<path d="M4 8.25C4 8.11193 4.11193 8 4.25 8H11.75C11.8881 8 12 8.11193 12 8.25V9.75C12 9.88807 11.8881 10 11.75 10H4.25C4.11193 10 4 9.88807 4 9.75V8.25Z" fill="#DFCFD2"/>
<path d="M4 12.25C4 12.1119 4.11193 12 4.25 12H9.75C9.88807 12 10 12.1119 10 12.25V13.75C10 13.8881 9.88807 14 9.75 14H4.25C4.11193 14 4 13.8881 4 13.75V12.25Z" fill="#DFCFD2"/>
<path fill-rule="evenodd" clip-rule="evenodd" d="M1 0C0.447715 0 0 0.447716 0 1V17C0 17.5523 0.447715 18 1 18H15C15.5523 18 16 17.5523 16 17V1C16 0.447715 15.5523 0 15 0H1ZM14 2H2V16H14V2Z" fill="#DFCFD2"/>
<path d="M18 3H20V21C20 21.5523 19.5523 22 19 22H5V20H18V3Z" fill="#DFCFD2"/>
</svg>
