<svg width="50" height="50" viewBox="0 0 50 50" fill="none" xmlns="http://www.w3.org/2000/svg">
<path fill-rule="evenodd" clip-rule="evenodd" d="M45.8332 8.92856C45.8332 7.44923 44.7967 6.25 43.5184 6.25H6.48132C5.20288 6.25 4.1665 7.44923 4.1665 8.92856V41.0715C4.1665 42.5508 5.20288 43.75 6.48132 43.75H10.4165V39.5833H8.33317V18.75H41.6644L41.6596 39.5833H39.5832V43.75H43.5184C44.7967 43.75 45.8332 42.5508 45.8332 41.0715V8.92856ZM16.6665 14.5833V10.4167H20.8332V14.5833H16.6665ZM41.6665 14.5833H24.9998V10.4167H41.6665V14.5833ZM12.4998 14.5833H8.33317V10.4167H12.4998V14.5833Z" fill="#DFCFD2"/>
<path d="M16.6665 42.7083V35.13C16.418 35.13 15.3953 35.1333 14.5866 35.1362C14.0098 35.1383 13.5415 34.6712 13.5415 34.0944V34.065C13.5415 33.7765 13.6613 33.5008 13.8721 33.304L24.283 23.5796C24.6828 23.2062 25.3011 23.2035 25.7015 23.5765C27.8694 25.5948 34.3723 31.6504 36.1334 33.3071C36.3409 33.5023 36.4569 33.774 36.4571 34.0587L36.4573 34.0975C36.4578 34.6731 35.9917 35.14 35.4161 35.14H33.3332V42.7083C33.3332 43.2837 32.8675 43.75 32.2921 43.75H27.0832V39.5833C27.0832 38.4437 26.1961 37.5 24.9998 37.5C23.8036 37.5 22.9165 38.4437 22.9165 39.5833V43.75H17.7075C17.1321 43.75 16.6665 43.2837 16.6665 42.7083Z" fill="#DFCFD2"/>
</svg>
