<svg width="45" height="45" viewBox="0 0 45 45" fill="none" xmlns="http://www.w3.org/2000/svg">
<path fill-rule="evenodd" clip-rule="evenodd" d="M25.3125 3.75H4.6875C4.16977 3.75 3.75 4.16977 3.75 4.6875V21.5625C3.75 22.0802 4.16977 22.5 4.6875 22.5H25.3125C25.8302 22.5 26.25 22.0802 26.25 21.5625V4.6875C26.25 4.16977 25.8302 3.75 25.3125 3.75ZM22.5 18.75H7.5V7.5H22.5V18.75ZM40.3125 3.75H30.9375C30.4198 3.75 30 4.16977 30 4.6875V21.5625C30 22.0802 30.4198 22.5 30.9375 22.5H40.3125C40.8302 22.5 41.25 22.0802 41.25 21.5625V4.6875C41.25 4.16977 40.8302 3.75 40.3125 3.75ZM33.75 18.75H37.5V7.5H33.75V18.75ZM4.6875 26.25H15.9375C16.4552 26.25 16.875 26.6698 16.875 27.1875V40.3125C16.875 40.8302 16.4552 41.25 15.9375 41.25H4.6875C4.16977 41.25 3.75 40.8302 3.75 40.3125V27.1875C3.75 26.6698 4.16977 26.25 4.6875 26.25ZM13.125 37.5H7.5V30H13.125V37.5ZM41.25 27.1875C41.25 26.6698 40.8302 26.25 40.3125 26.25H21.5625C21.0448 26.25 20.625 26.6698 20.625 27.1875V40.3125C20.625 40.8302 21.0448 41.25 21.5625 41.25H40.3125C40.8302 41.25 41.25 40.8302 41.25 40.3125V27.1875ZM24.375 37.5H37.5V30H24.375V37.5Z" fill="#DFCFD2"/>
</svg>
