<svg width="30" height="30" viewBox="0 0 30 30" fill="none" xmlns="http://www.w3.org/2000/svg">
<path d="M25.0758 1.74988C24.6273 1.49095 24.4737 0.917475 24.7326 0.468993C24.9915 0.020511 25.565 -0.13315 26.0135 0.125781C26.2732 0.275712 26.5215 0.438258 26.7581 0.612263C29.9072 2.9284 30.9309 7.23923 29.0782 10.7466C28.8363 11.2045 28.269 11.3797 27.8111 11.1378C27.3532 10.8959 27.1781 10.3286 27.42 9.87073C28.8356 7.19063 28.0534 3.89288 25.647 2.12299C25.466 1.98986 25.2755 1.86518 25.0758 1.74988ZM23.2005 4.99831C22.752 4.73938 22.5983 4.16591 22.8573 3.71743C23.1162 3.26894 23.6897 3.11528 24.1381 3.37421C26.0525 4.47943 26.7727 6.85712 25.848 8.822C25.6274 9.29057 25.0688 9.49164 24.6003 9.27112C24.1317 9.05059 23.9306 8.49198 24.1511 8.02341C24.6642 6.9332 24.2633 5.61195 23.2005 4.99831ZM4.92417 28.2501C5.37266 28.5091 5.52632 29.0825 5.26739 29.531C5.00845 29.9795 4.43497 30.1331 3.98649 29.8742C3.7268 29.7243 3.47846 29.5617 3.24188 29.3877C0.0927858 27.0716 -0.930861 22.7608 0.9218 19.2534C1.16367 18.7955 1.73096 18.6203 2.18887 18.8622C2.64679 19.1041 2.82192 19.6714 2.58005 20.1293C1.16438 22.8094 1.94663 26.1071 4.35303 27.877C4.53403 28.0101 4.72447 28.1348 4.92417 28.2501ZM6.79953 25.0017C7.24802 25.2606 7.40168 25.8341 7.14275 26.2826C6.88382 26.7311 6.31034 26.8847 5.86185 26.6258C3.94755 25.5206 3.22727 23.1429 4.15203 21.178C4.37256 20.7094 4.93118 20.5084 5.39975 20.7289C5.86831 20.9494 6.06939 21.508 5.84886 21.9766C5.33576 23.0668 5.73667 24.3881 6.79953 25.0017ZM18.0088 5.124C17.7451 4.12371 16.7554 3.55853 15.8009 3.8186L8.8861 5.70246C7.90261 5.9704 7.29066 7.02105 7.56213 8.05071L11.9987 24.878C12.2624 25.8783 13.252 26.4434 14.2066 26.1834L21.1214 24.2995C22.1049 24.0316 22.7168 22.9809 22.4454 21.9513L18.0088 5.124ZM15.3224 2.00531C17.2997 1.46662 19.2967 2.65294 19.8183 4.6314L24.2549 21.4586C24.7842 23.4662 23.6058 25.5663 21.5998 26.1128L14.6851 27.9967C12.7078 28.5353 10.7108 27.349 10.1892 25.3706L5.75262 8.54332C5.22332 6.53576 6.40173 4.43566 8.40764 3.88917L15.3224 2.00531ZM14.4078 23.2111C14.2826 22.7087 14.5861 22.191 15.0858 22.0548L18.4266 21.1446C18.9263 21.0085 19.4329 21.3055 19.5581 21.808C19.6833 22.3105 19.3798 22.8282 18.8801 22.9643L15.5392 23.8745C15.0396 24.0106 14.533 23.7136 14.4078 23.2111Z" fill="#DFCFD2"/>
</svg>
