<svg width="48" height="48" viewBox="0 0 48 48" fill="none" xmlns="http://www.w3.org/2000/svg">
<path fill-rule="evenodd" clip-rule="evenodd" d="M16 16C16 20.412 19.5879 24 24 24C28.4121 24 32 20.412 32 16C32 11.588 28.4121 8 24 8C19.5879 8 16 11.588 16 16ZM20 16C20 13.792 21.7939 12 24 12C26.2061 12 28 13.792 28 16C28 18.206 26.2061 20 24 20C21.7939 20 20 18.206 20 16Z" fill="#DFCFD2"/>
<path fill-rule="evenodd" clip-rule="evenodd" d="M9 40C8.44775 40 8 39.5522 8 39V38C8 30.934 14.5801 26 24 26C33.4199 26 40 30.934 40 38V39C40 39.5522 39.5522 40 39 40H9ZM35.6841 36H12.3181C13.5142 32.384 17.9861 30 24.0022 30C30.0181 30 34.488 32.384 35.6841 36Z" fill="#DFCFD2"/>
</svg>
