<svg width="49" height="42" viewBox="0 0 49 42" fill="none" xmlns="http://www.w3.org/2000/svg">
<path d="M12.248 13.448C11.6457 13.792 10.9535 14 10.2083 14C7.95433 14 6.125 12.208 6.125 10C6.125 7.792 7.95433 6 10.2083 6C12.4583 6 14.2794 7.782 14.2896 9.984L22.4604 14.556C23.0627 14.212 23.7548 14 24.5 14C24.8634 14 25.2085 14.062 25.5433 14.148L34.8594 5.024C34.7716 4.698 34.7083 4.358 34.7083 4C34.7083 1.792 36.5377 0 38.7917 0C41.0457 0 42.875 1.792 42.875 4C42.875 6.208 41.0457 8 38.7917 8C38.4283 8 38.0812 7.942 37.7463 7.854L28.4323 16.978C28.52 17.308 28.5833 17.644 28.5833 18C28.5833 20.208 26.754 22 24.5 22C22.2501 22 20.4289 20.22 20.4187 18.02L12.248 13.448Z" fill="#DFCFD2"/>
<path fill-rule="evenodd" clip-rule="evenodd" d="M44.9167 18C44.9167 16.898 44.002 16 42.875 16H34.7083C33.5813 16 32.6667 16.898 32.6667 18V38H30.625V28C30.625 26.898 29.7103 26 28.5833 26H20.4167C19.2897 26 18.375 26.898 18.375 28V38H16.3333V22C16.3333 20.898 15.4187 20 14.2917 20H6.125C4.998 20 4.08333 20.898 4.08333 22V38H0V42H49V38H44.9167V18ZM8.16667 38V24H12.25V38H8.16667ZM26.5417 38V30H22.4583V38H26.5417ZM36.75 38V20H40.8333V38H36.75Z" fill="#DFCFD2"/>
</svg>
